#N canvas 0 22 450 300 10;
#X obj 80 35 inlet;
#X obj 80 58 bng 15 250 50 0 empty empty empty 17 7 0 10 -262144 -1
-1;
#X obj 167 93 + 1;
#X floatatom 80 122 5 0 0 0 - - -;
#X obj 80 149 outlet;
#X obj 80 93 float 0;
#X connect 0 0 1 0;
#X connect 1 0 5 0;
#X connect 2 0 5 1;
#X connect 3 0 4 0;
#X connect 5 0 2 0;
#X connect 5 0 3 0;
